<svg width="115px" height="36" viewBox="0 0 180 58" fill="none" xmlns="http://www.w3.org/2000/svg" aria-hidden="true"><mask id="mask0_917_2367" maskUnits="userSpaceOnUse" x="0" y="0" width="51" height="58" style="mask-type: luminance;"><path d="M21.3289 1.11356L4.04307 11.2898C1.54185 12.7631 0 15.487 0 18.4336V38.786C0 41.7327 1.54185 44.4566 4.04307 45.9299L21.3289 56.1061C23.8301 57.5795 26.9138 57.5795 29.415 56.1061L46.7009 45.9299C49.2021 44.4566 50.7439 41.7327 50.7439 38.786V18.4336C50.7439 15.487 49.2021 12.7631 46.7009 11.2898L29.415 1.11356C28.1644 0.376899 26.7768 0 25.372 0C23.9672 0 22.5795 0.376899 21.3289 1.11356Z" fill="white"/></mask><g mask="url(#mask0_917_2367)"><path d="M37.3426 -22.3751L-25.3857 15.2266L13.4138 79.9533L76.1421 42.3516L37.3426 -22.3751Z" fill="url(#paint0_linear_917_2367)"/></g><path fill-rule="evenodd" clip-rule="evenodd" d="M15.2009 36.1156L15.6805 36.938L9.46176 40.6041C7.79999 41.5806 5.72705 40.3643 5.72705 38.4113V17.425C5.72705 16.517 6.20674 15.6776 6.97766 15.2322L23.1499 5.75838C24.8117 4.78187 26.8846 5.99822 26.8846 7.95122V14.3756H25.9424V7.95122C25.9424 6.73488 24.6575 5.96395 23.6125 6.58069L7.44022 16.0545C6.96054 16.3286 6.6693 16.8597 6.6693 17.425V38.4113C6.6693 39.6276 7.95416 40.3985 8.99919 39.7818L15.218 36.1156H15.2009Z" fill="#9CDAE9"/><path fill-rule="evenodd" clip-rule="evenodd" d="M14.8118 43.069V22.0656C14.8118 21.1577 15.2915 20.3182 16.0624 19.8728L32.2347 10.399C33.8964 9.4225 35.9693 10.6388 35.9693 12.5919V33.5952C35.9693 34.5032 35.4897 35.3427 34.7187 35.7881L18.5465 45.2619C16.8847 46.2384 14.8118 45.0221 14.8118 43.069ZM15.754 43.069C15.754 44.2854 17.0389 45.0563 18.0839 44.4396L34.2562 34.9658C34.7359 34.6917 35.0271 34.1606 35.0271 33.5952V12.5919C35.0271 11.3755 33.7422 10.6046 32.7143 11.2213L16.5421 20.6951C16.0624 20.9692 15.7711 21.5003 15.7711 22.0656V43.069H15.754Z" fill="#62CAE1"/><path d="M24.3853 49.2537V28.2503C24.3853 27.5137 24.7793 26.8284 25.396 26.4686L41.5683 16.9949C42.9217 16.2068 44.6006 17.2004 44.6006 18.7765V39.7799C44.6006 40.5166 44.2066 41.2019 43.5898 41.5616L27.4175 51.0354C26.0641 51.8235 24.3853 50.8298 24.3853 49.2537Z" fill="white"/><path fill-rule="evenodd" clip-rule="evenodd" d="M30.6908 42.934C29.9542 43.4308 29.2175 43.5679 28.635 43.191C27.4872 42.4714 27.4187 40.0901 28.4637 37.8801C29.0805 36.5953 29.9371 35.653 30.7594 35.2419C30.4339 34.1626 30.6223 32.5522 31.3418 31.0104C32.3869 28.8175 34.1686 27.6183 35.3164 28.3378C35.8132 28.6462 36.0873 29.2629 36.1901 30.0167C37.0124 29.3143 37.9033 29.0916 38.5543 29.5199C38.8969 29.7426 39.1539 30.1195 39.3081 30.5992C39.9762 30.2052 40.6272 30.1366 41.1583 30.4793C42.3061 31.1988 42.3746 33.5801 41.3125 35.7901C40.73 37.0064 39.9419 37.9144 39.1367 38.3598L30.6566 42.934V42.9168L30.6908 42.934Z" fill="#0092B3"/><path d="M61.6184 39.8152V37.1769L71.2122 23.7971C71.7432 23.0775 72.3086 22.358 72.9082 21.6214C73.5078 20.9018 74.1245 20.1652 74.7413 19.4285L75.101 20.7476C74.1417 20.799 73.1823 20.8504 72.2229 20.8676C71.2636 20.8676 70.3042 20.8847 69.3448 20.8847H61.6356V17.5098H78.2533V20.1652L68.8309 33.3223C68.2655 34.0761 67.6831 34.847 67.0492 35.6008C66.4153 36.3717 65.7814 37.1255 65.1304 37.8793L64.7707 36.5602C65.7472 36.5088 66.7237 36.4574 67.7002 36.4402C68.6767 36.4402 69.6532 36.4231 70.6297 36.4231H78.3218V39.798H61.6013L61.6184 39.8152Z" fill="#0690B0"/><path d="M89.045 40.1579C87.4347 40.1579 86.047 39.7982 84.8478 39.0958C83.6486 38.3762 82.7406 37.3826 82.0725 36.0977C81.4214 34.8129 81.0959 33.3224 81.0959 31.6092C81.0959 29.8961 81.4214 28.4056 82.0725 27.1208C82.7235 25.8359 83.6486 24.8251 84.8478 24.1227C86.047 23.4032 87.4347 23.0605 89.045 23.0605C90.6554 23.0605 92.0602 23.4203 93.2594 24.1227C94.4586 24.8422 95.3666 25.8359 96.0347 27.1208C96.6857 28.4056 97.0112 29.9132 97.0112 31.6092C97.0112 33.3053 96.6857 34.8129 96.0347 36.0977C95.3837 37.3826 94.4586 38.3762 93.2594 39.0958C92.0602 39.8153 90.6554 40.1579 89.045 40.1579ZM89.045 37.0057C89.9359 37.0057 90.6725 36.7659 91.2721 36.2862C91.8718 35.8065 92.3172 35.1726 92.6255 34.3503C92.9339 33.5451 93.0881 32.62 93.0881 31.6092C93.0881 30.5985 92.9339 29.6391 92.6255 28.8339C92.3172 28.0287 91.8718 27.3777 91.2721 26.9152C90.6725 26.4526 89.9359 26.2128 89.045 26.2128C88.1542 26.2128 87.4347 26.4526 86.835 26.9152C86.2354 27.3777 85.79 28.0287 85.4816 28.8339C85.1904 29.6391 85.0362 30.5813 85.0362 31.6092C85.0362 32.6371 85.1904 33.5451 85.4816 34.3503C85.7729 35.1555 86.2354 35.8065 86.835 36.2862C87.4347 36.7659 88.1713 37.0057 89.045 37.0057Z" fill="#0690B0"/><path d="M100.23 46.0859V23.3008H104.017V25.9562H104.222C104.445 25.5108 104.77 25.0825 105.164 24.6371C105.558 24.1917 106.072 23.8148 106.689 23.5235C107.306 23.2323 108.094 23.0781 109.019 23.0781C110.321 23.0781 111.503 23.4208 112.531 24.0889C113.559 24.757 114.381 25.7335 114.981 27.0013C115.58 28.269 115.889 29.8109 115.889 31.6268C115.889 33.4428 115.598 34.9504 114.998 36.2181C114.415 37.4858 113.593 38.4623 112.565 39.1476C111.52 39.8329 110.338 40.1755 109.002 40.1755C108.111 40.1755 107.34 40.0213 106.723 39.7301C106.107 39.4388 105.593 39.0619 105.182 38.6165C104.787 38.1711 104.462 37.7257 104.239 37.2803H104.085V46.1202H100.23V46.0859ZM107.991 36.9376C108.848 36.9376 109.55 36.7149 110.15 36.2524C110.732 35.7898 111.195 35.1731 111.503 34.3507C111.811 33.5284 111.966 32.6205 111.966 31.5583C111.966 30.4961 111.811 29.571 111.503 28.7658C111.195 27.9606 110.749 27.3439 110.167 26.8985C109.584 26.4531 108.848 26.2303 107.991 26.2303C107.135 26.2303 106.415 26.4531 105.833 26.8813C105.233 27.3268 104.787 27.9435 104.479 28.7316C104.171 29.5368 103.999 30.4619 103.999 31.5412C103.999 32.6204 104.154 33.5456 104.479 34.3507C104.787 35.1559 105.25 35.7727 105.85 36.2352C106.449 36.6978 107.169 36.9034 108.008 36.9034L107.991 36.9376Z" fill="#0690B0"/><path d="M121.213 40.0029C120.768 40.0029 120.408 39.8487 120.083 39.5403C119.757 39.232 119.62 38.8551 119.62 38.4096C119.62 37.9642 119.774 37.6045 120.083 37.279C120.391 36.9535 120.768 36.8164 121.213 36.8164C121.659 36.8164 122.019 36.9706 122.344 37.279C122.67 37.5873 122.807 37.9642 122.807 38.4096C122.807 38.8551 122.652 39.2148 122.344 39.5403C122.036 39.8658 121.659 40.0029 121.213 40.0029Z" fill="#ffffff"/><path d="M130.417 17.5269V39.8323H128.327V17.5269H130.417ZM134.888 39.8152H129.475V37.9307H134.768C136.67 37.9307 138.263 37.5538 139.548 36.8171C140.833 36.0805 141.792 35.0012 142.426 33.6135C143.077 32.2087 143.386 30.5469 143.386 28.6111C143.386 26.6752 143.077 25.0477 142.443 23.6772C141.81 22.3066 140.884 21.2445 139.668 20.5078C138.452 19.7711 136.944 19.3942 135.145 19.3942H129.389V17.5098H135.265C137.39 17.5098 139.206 17.9552 140.73 18.846C142.255 19.7369 143.403 21.0046 144.225 22.6664C145.03 24.3282 145.441 26.2983 145.441 28.6111C145.441 30.9238 145.03 32.9625 144.208 34.6414C143.386 36.3203 142.186 37.588 140.61 38.496C139.034 39.3869 137.133 39.8323 134.888 39.8323V39.8152Z" fill="#ffffff"/><path d="M155.773 40.1579C154.232 40.1579 152.878 39.7982 151.747 39.0786C150.617 38.3591 149.743 37.3483 149.126 36.0635C148.51 34.7786 148.201 33.3053 148.201 31.6435C148.201 29.9817 148.51 28.4913 149.126 27.1893C149.743 25.9044 150.6 24.8765 151.696 24.157C152.792 23.4203 154.06 23.0605 155.482 23.0605C156.441 23.0605 157.349 23.2319 158.206 23.5745C159.063 23.9171 159.816 24.4311 160.485 25.1335C161.153 25.8359 161.667 26.6925 162.044 27.7204C162.42 28.7483 162.609 29.9646 162.609 31.3351V32.1403H149.486V30.41H161.512L160.604 31.061C160.604 29.8618 160.399 28.7997 159.988 27.8574C159.577 26.9323 158.977 26.1956 158.223 25.6646C157.452 25.1335 156.544 24.8594 155.499 24.8594C154.454 24.8594 153.529 25.1335 152.741 25.6817C151.953 26.2299 151.336 26.9666 150.908 27.8745C150.463 28.7825 150.257 29.8104 150.257 30.924V31.9005C150.257 33.2025 150.48 34.3332 150.925 35.2925C151.371 36.269 152.022 37.0057 152.844 37.5539C153.683 38.085 154.66 38.3591 155.79 38.3591C156.579 38.3591 157.281 38.2392 157.881 37.9822C158.48 37.7252 158.994 37.3826 159.405 36.9543C159.816 36.526 160.125 36.0463 160.33 35.5153L162.266 35.9949C162.009 36.7487 161.598 37.4511 161.016 38.085C160.433 38.7189 159.696 39.2328 158.806 39.6097C157.915 39.9866 156.921 40.1751 155.808 40.1751L155.773 40.1579Z" fill="#ffffff"/><path d="M170.777 39.8152L164.421 23.2832H166.597L170.451 33.6136C170.794 34.5044 171.102 35.4124 171.359 36.3032C171.634 37.1941 171.908 38.0849 172.199 38.9415H171.548C171.839 38.0849 172.113 37.2112 172.387 36.3032C172.661 35.4124 172.953 34.5044 173.295 33.6136L177.133 23.2832H179.309L172.953 39.8152H170.811H170.777Z" fill="#ffffff"/><defs><linearGradient id="paint0_linear_917_2367" x1="16.8541" y1="45.2888" x2="58.8748" y2="20.1" gradientUnits="userSpaceOnUse"><stop stop-color="#00B7D5"/><stop offset="1" stop-color="#0092B3"/></linearGradient></defs></svg>
